<svg class="animated" id="freepik_stories-privacy-policy" xmlns="http://www.w3.org/2000/svg"
    viewBox="0 0 500 500" version="1.1" xmlns:xlink="http://www.w3.org/1999/xlink"
    xmlns:svgjs="http://svgjs.com/svgjs">
    <g id="freepik--Character--inject-26" class="animable"
        style="transform-origin: 161.172px 283.149px;">
        <path
            d="M176.37,199.49c2.56,2.79,5,5.68,7.43,8.59s4.78,5.88,7.12,8.86c.1.13.06.08.08.12s0,.05,0,.06a.36.36,0,0,0,.07.1,1.12,1.12,0,0,0,.73.46,1.27,1.27,0,0,0,.34,0,1.15,1.15,0,0,0,.18,0l.09,0c.05,0,0,0,.16-.06l2.5-1.36c3.36-1.78,6.75-3.52,10.25-5.08l2.93,3.63c-2.82,2.59-5.76,5.84-8.73,8.22l-2.24,1.76a3.8,3.8,0,0,1-.44.31,5.1,5.1,0,0,1-.53.33,10.63,10.63,0,0,1-1.12.56,9.86,9.86,0,0,1-2.42.67,10.34,10.34,0,0,1-5-.5,10,10,0,0,1-2.3-1.17c-.36-.24-.7-.52-1-.79-.17-.14-.31-.3-.47-.45l-.4-.4c-2.65-2.72-5.26-5.46-7.82-8.25s-5.09-5.6-7.51-8.52Z"
            style="fill: rgb(181, 91, 82); transform-origin: 188.26px 213.13px;" id="eld83q4g0bf9"
            class="animable"></path>
        <path d="M204,213.38l2.33-7.49,6.14,3.06s-.9,5.46-5.36,6.41Z"
            style="fill: rgb(181, 91, 82); transform-origin: 208.235px 210.625px;"
            id="eldc38g0bee7v" class="animable"></path>
        <polygon points="208.78 203.82 214.32 205.34 212.46 208.95 206.32 205.89 208.78 203.82"
            style="fill: rgb(181, 91, 82); transform-origin: 210.32px 206.385px;" id="elbqh6t99c51"
            class="animable"></polygon>
        <path
            d="M144.09,201.53c-.66,3.18-1.48,6.33-2.33,9.47s-1.78,6.25-2.75,9.36l-.36,1.17-.18.58a1.15,1.15,0,0,1-.1.24,3.34,3.34,0,0,0-.19,1,3.55,3.55,0,0,0,.58,2.05,6.33,6.33,0,0,0,.65.75l.83.91,1.64,1.83c1.07,1.24,2.15,2.48,3.17,3.78l-3.49,4c-1.44-.82-2.82-1.71-4.2-2.59l-2.05-1.36-1-.69c-.34-.24-.62-.4-1.17-.85a11.65,11.65,0,0,1-3.84-6.45,12.43,12.43,0,0,1-.19-3.9c0-.32.1-.68.15-1l.11-.6.21-1.2c.56-3.21,1.16-6.41,1.83-9.59s1.39-6.35,2.24-9.48Z"
            style="fill: rgb(181, 91, 82); transform-origin: 137.043px 217.815px;" id="elzknwdd7rkv"
            class="animable"></path>
        <path d="M141.63,232.35l4.12-2.11,1.82,7s-3.31,1.27-5.87-.36Z"
            style="fill: rgb(181, 91, 82); transform-origin: 144.6px 233.976px;" id="elyswvhktbpl"
            class="animable"></path>
        <polygon points="151.45 227.99 151.64 234.43 147.03 237.44 145.43 230.37 151.45 227.99"
            style="fill: rgb(181, 91, 82); transform-origin: 148.535px 232.715px;" id="elhuoobn0lte"
            class="animable"></polygon>
        <path
            d="M164.94,168.47c.1.49.45.84.77.78s.51-.52.41-1-.45-.84-.77-.78S164.84,168,164.94,168.47Z"
            style="fill: rgb(38, 50, 56); transform-origin: 165.53px 168.36px;" id="ell3tm2ub4a8j"
            class="animable"></path>
        <path d="M165.34,169.32a18.21,18.21,0,0,0,3.23,3.76,2.92,2.92,0,0,1-2.28.93Z"
            style="fill: rgb(160, 39, 36); transform-origin: 166.955px 171.667px;" id="eln7ko1k2l6t"
            class="animable"></path>
        <path
            d="M162.57,166.09a.3.3,0,0,1-.22-.5,3,3,0,0,1,2.53-1,.3.3,0,0,1,.24.35.29.29,0,0,1-.34.24h0a2.35,2.35,0,0,0-2,.8A.32.32,0,0,1,162.57,166.09Z"
            style="fill: rgb(38, 50, 56); transform-origin: 163.699px 165.333px;" id="el9kgdlbzd5v9"
            class="animable"></path>
        <path
            d="M150.52,175.44c1.1,4.59,2.21,13-1.73,16.05,0,0,1.54,4.66,12,4.66,11.5,0,5.5-3,5.5-3-6.28-1.22-6.12-6.67-5-10.24Z"
            style="fill: rgb(181, 91, 82); transform-origin: 158.322px 185.795px;" id="ela85rhdjpcp"
            class="animable"></path>
        <path
            d="M147.56,192.34c-.68-1.27-1.44-2.73.12-3.19,1.72-.5,12.75-1.43,16-.49-1,1.77.69,4,.69,4Z"
            style="fill: rgb(38, 50, 56); transform-origin: 155.567px 190.458px;" id="elbyk0fbxnmm"
            class="animable"></path>
        <polygon points="156.7 406.92 163.91 406.92 164.63 392.4 157.41 392.4 156.7 406.92"
            style="fill: rgb(181, 91, 82); transform-origin: 160.665px 399.66px;" id="elw6do8c0tfo"
            class="animable"></polygon>
        <polygon points="110.91 404.92 118.22 405.31 122.66 391 115.35 390.61 110.91 404.92"
            style="fill: rgb(181, 91, 82); transform-origin: 116.785px 397.96px;" id="el7knv28le52a"
            class="animable"></polygon>
        <path
            d="M118,404.73l-6.89-1.49a.54.54,0,0,0-.61.3l-2.39,5.19a.91.91,0,0,0,.66,1.28c2.41.48,3.61.59,6.64,1.25,1.86.4,6.07,1.43,8.64,2s3.46-1.91,2.46-2.37c-4.5-2.05-6.38-3.86-7.6-5.55A1.55,1.55,0,0,0,118,404.73Z"
            style="fill: rgb(38, 50, 56); transform-origin: 117.468px 408.286px;" id="elct1n8c07c9v"
            class="animable"></path>
        <path
            d="M163.53,406.19h-6.85a.55.55,0,0,0-.53.43l-1.24,5.57a.91.91,0,0,0,.9,1.12c2.47,0,6-.19,9.15-.19,3.63,0,6.76.2,11,.2,2.57,0,3.29-2.6,2.21-2.84-4.91-1.07-8.91-1.19-13.15-3.8A2.94,2.94,0,0,0,163.53,406.19Z"
            style="fill: rgb(38, 50, 56); transform-origin: 166.77px 409.755px;" id="el7of9bpzw4l5"
            class="animable"></path>
        <path
            d="M135.72,193.61c-5.44,2.59-6.92,18.29-6.92,18.29l13.47,6.22a25.78,25.78,0,0,0,3.6-12.67C146.14,197.34,141.29,191,135.72,193.61Z"
            style="fill: rgb(38, 50, 56); transform-origin: 137.34px 205.567px;" id="elwyi4nh4ynhq"
            class="animable"></path>
        <g id="elz3rtpzpql7s">
            <path
                d="M143,203.29c-2.43,3.78-2.2,9.62-1.36,14.55l.6.28a25.83,25.83,0,0,0,3.6-12.67c0-.48,0-1,0-1.43Z"
                style="opacity: 0.4; transform-origin: 143.448px 210.705px;" class="animable"></path>
        </g>
        <path
            d="M173.31,193.23s6.68,7.54.37,54.2H140.15c-.23-5.15,3-30.26-2-54.52a88.21,88.21,0,0,1,11.22-1.42,125.53,125.53,0,0,1,14.26,0A64,64,0,0,1,173.31,193.23Z"
            style="fill: rgb(44, 40, 219); transform-origin: 157.271px 219.359px;" id="ellmldeezyjp"
            class="animable"></path>
        <g id="els50ward8us">
            <path
                d="M173.31,193.23s6.68,7.54.37,54.2H140.15c-.23-5.15,3-30.26-2-54.52a88.21,88.21,0,0,1,11.22-1.42,125.53,125.53,0,0,1,14.26,0A64,64,0,0,1,173.31,193.23Z"
                style="fill: rgb(250, 250, 250); opacity: 0.6; transform-origin: 157.271px 219.359px;"
                class="animable"></path>
        </g>
        <g id="elo33h977ildo">
            <path
                d="M176.24,207.49l-.12-.11-6.67-3.56c-.68,10.27,3.91,16.71,6.64,19.52A143.39,143.39,0,0,0,176.24,207.49Z"
                style="opacity: 0.2; transform-origin: 172.886px 213.58px;" class="animable"></path>
        </g>
        <g id="elf5q8baltm3">
            <polygon points="164.63 392.4 164.26 399.89 157.04 399.89 157.41 392.4 164.63 392.4"
                style="opacity: 0.2; transform-origin: 160.835px 396.145px;" class="animable"></polygon>
        </g>
        <g id="elz57qn8li13">
            <polygon points="115.35 390.62 122.66 391 120.37 398.38 113.06 397.99 115.35 390.62"
                style="opacity: 0.2; transform-origin: 117.86px 394.5px;" class="animable"></polygon>
        </g>
        <path
            d="M148.2,170.78c1.61,6,2.25,9.61,6,12.11,5.58,3.76,12.52-.56,12.74-6.93.19-5.73-2.47-14.6-8.92-15.81A8.49,8.49,0,0,0,148.2,170.78Z"
            style="fill: rgb(181, 91, 82); transform-origin: 157.416px 172.139px;"
            id="els9fl2xr39jp" class="animable"></path>
        <path
            d="M161.79,247.43s-7.12,47.91-11,65.87C146.49,333,123.55,398,123.55,398l-11.23-2.43s14.39-53,18-80.48c1.4-10.73,3.09-28,5.23-42.43,2.07-14,4.62-25.22,4.62-25.22Z"
            style="fill: rgb(38, 50, 56); transform-origin: 137.055px 322.715px;" id="elpuilgubrpi"
            class="animable"></path>
        <path d="M126.24,394.25s-2.1,4.06-2.1,4.06l-12.62-2.74,1.06-3.79Z"
            style="fill: rgb(44, 40, 219); transform-origin: 118.88px 395.045px;" id="elmztttziam3f"
            class="animable"></path>
        <g id="elsohpliiis3h">
            <path d="M126.24,394.25s-2.1,4.06-2.1,4.06l-12.62-2.74,1.06-3.79Z"
                style="fill: rgb(255, 255, 255); opacity: 0.6; transform-origin: 118.88px 395.045px;"
                class="animable"></path>
        </g>
        <g id="elw7z72z8j8gl">
            <path
                d="M157.29,264.5c-8.23,1.61-7.36,32.3-6.37,48.08,2.38-11.16,5.85-32.62,8.22-47.86A2.8,2.8,0,0,0,157.29,264.5Z"
                style="opacity: 0.6; transform-origin: 154.72px 288.506px;" class="animable"></path>
        </g>
        <path
            d="M173.68,247.43s3.35,46.88,2.67,66c-.71,19.89-10.14,85-10.14,85H155.59s-.39-64-.86-83.49c-.52-21.3-3.09-67.52-3.09-67.52Z"
            style="fill: rgb(38, 50, 56); transform-origin: 164.041px 322.925px;" id="elaigbh2g9tci"
            class="animable"></path>
        <path d="M168.25,394.21c.05,0-.6,4.41-.6,4.41H154.73l-.35-3.94Z"
            style="fill: rgb(44, 40, 219); transform-origin: 161.316px 396.415px;" id="elt03x2vpluz"
            class="animable"></path>
        <g id="elyjv7a7ukgtp">
            <path d="M168.25,394.21c.05,0-.6,4.41-.6,4.41H154.73l-.35-3.94Z"
                style="fill: rgb(255, 255, 255); opacity: 0.6; transform-origin: 161.316px 396.415px;"
                class="animable"></path>
        </g>
        <path
            d="M169.4,202c0,12.58,6.69,17.76,6.69,17.76L187,209.14a89.8,89.8,0,0,0-8.79-12.23C171.9,189.68,169.4,193.92,169.4,202Z"
            style="fill: rgb(38, 50, 56); transform-origin: 178.2px 206.483px;" id="el0xkvbylffx1m"
            class="animable"></path>
        <g id="el6osb4wypea3">
            <path
                d="M166.52,178.24a4.1,4.1,0,0,1-2.82,2.6,3.38,3.38,0,0,0-2.69,3l0,0A8.66,8.66,0,0,0,166.52,178.24Z"
                style="opacity: 0.2; transform-origin: 163.765px 181.04px;" class="animable"></path>
        </g>
        <path
            d="M163.7,158.83c2.24-2.83-1.21-3-1.21-3,.9-3.37-3.14-1.56-3.14-1.56-2.42-3.34-3.79.73-3.79.73-2.51-2.83-3,1.79-3,1.79-2.52-3.59-3.8,1.59-3.8,1.59-2.32-3.73-3.74,1.12-3.74,1.12-4.79-1.71-2.52,3.27-2.52,3.27-4.08.11-.8,3.28-.8,3.28-4.9,0-.58,2.81-.58,2.81-3.89,2.55,1,3.24,1,3.24-3.17,5,2.28,3.12,2.28,3.12-2.21,4.92,2.68,2.75,2.68,2.75-.31,4.74,2.42,3.45,3.74,2.57.25,1,.73,2,1.61,2.08,1.71.23,2-3,2-3s1.58,1.24,2.91.57.83-2.36.83-2.36a1.67,1.67,0,0,0,2,0c.57-.44.57-3.62-.15-4.74l2.6-1s1.93-.27,1.07-2.82a7.42,7.42,0,0,1-.13-4.55c2.94-1.38.52-3,.52-3C167.49,159.53,163.7,158.83,163.7,158.83Z"
            style="fill: rgb(38, 50, 56); transform-origin: 152.432px 167.793px;" id="els4vxcadbvc9"
            class="animable"></path>
        <path
            d="M158.43,171a7,7,0,0,0,2.53,3.74c1.63,1.22,2.85,0,2.73-1.83-.1-1.66-1.08-4.29-2.88-4.79S158,169.23,158.43,171Z"
            style="fill: rgb(181, 91, 82); transform-origin: 161.015px 171.629px;" id="elu36jcubgs7"
            class="animable"></path>
    </g>
</svg>