<svg class="animated" id="freepik_stories-privacy-policy" xmlns="http://www.w3.org/2000/svg"
    viewBox="0 0 500 500" version="1.1" xmlns:xlink="http://www.w3.org/1999/xlink"
    xmlns:svgjs="http://svgjs.com/svgjs">
    <g id="freepik--Document--inject-26" class="animable"
        style="transform-origin: 210.13px 243.45px;">
        <g id="elagzq78sjep">
            <path
                d="M230.64,161.37a18,18,0,0,0-2.3,7.25L213.45,338.84h46.08l9.26-35.49-3.05-35.5L275,232.36,272,196.87l9.26-35.5Z"
                style="opacity: 0.2; transform-origin: 247.355px 250.105px;" class="animable"></path>
        </g>
        <polygon
            points="267.95 186.87 277.21 151.37 160.68 151.37 151.43 186.87 154.47 222.36 145.22 257.85 148.26 293.35 139.01 328.84 255.53 328.84 264.79 293.35 261.74 257.85 271 222.36 267.95 186.87"
            style="fill: rgb(44, 40, 219); transform-origin: 208.11px 240.105px;" id="elako8navc41d"
            class="animable"></polygon>
        <g id="el6i4sk3ghb7a">
            <polygon
                points="267.95 186.87 277.21 151.37 160.68 151.37 151.43 186.87 154.47 222.36 145.22 257.85 148.26 293.35 139.01 328.84 255.53 328.84 264.79 293.35 261.74 257.85 271 222.36 267.95 186.87"
                style="fill: rgb(255, 255, 255); opacity: 0.7; transform-origin: 208.11px 240.105px;"
                class="animable"></polygon>
        </g>
        <g id="elrs0423nwod">
            <polygon points="267.95 186.87 151.43 186.87 160.68 151.37 277.21 151.37 267.95 186.87"
                style="fill: rgb(255, 255, 255); opacity: 0.5; transform-origin: 214.32px 169.12px;"
                class="animable"></polygon>
        </g>
        <g id="elvdqast8x3jj">
            <polygon points="261.74 257.85 145.22 257.85 154.47 222.36 271 222.36 261.74 257.85"
                style="fill: rgb(255, 255, 255); opacity: 0.5; transform-origin: 208.11px 240.105px;"
                class="animable"></polygon>
        </g>
        <g id="elw7wtvjbldxa">
            <polygon points="255.53 328.84 139 328.84 148.26 293.35 264.79 293.35 255.53 328.84"
                style="fill: rgb(255, 255, 255); opacity: 0.5; transform-origin: 201.895px 311.095px;"
                class="animable"></polygon>
        </g>
        <g id="el879s09c6t3q">
            <path
                d="M252.36,201.7a12.74,12.74,0,0,1-3.68.5,10.25,10.25,0,0,1-4.89-1,1.79,1.79,0,0,0-.91-.25h0a1.81,1.81,0,0,0-.84.22l-.06,0h0l0,0a5.91,5.91,0,0,1-1.42.57,13,13,0,0,1-3.43.43c-.35,0-.69,0-1,0a12.1,12.1,0,0,1-2.65-.47,1.78,1.78,0,0,0-.39-.07,1.6,1.6,0,0,0-1.73,1.59h0v1.08H186a6.34,6.34,0,0,0-6.34,6.35v6.39A6.34,6.34,0,0,0,186,223.4h51.53l.34,0c.55.46,1.13.92,1.75,1.39s1.5,1.12,2.31,1.7a1.62,1.62,0,0,0,1.9,0c6.48-4.7,10.64-7.94,10.64-16.84v-6.4A1.61,1.61,0,0,0,252.36,201.7Z"
                style="opacity: 0.2; transform-origin: 217.065px 213.874px;" class="animable"></path>
        </g>
        <rect x="178.67" y="200.79" width="64.22" height="19.09" rx="6.35"
            style="fill: rgb(44, 40, 219); transform-origin: 210.78px 210.335px;" id="elrnrjrd7y5ir"
            class="animable"></rect>
        <path
            d="M247.69,198.68a10.31,10.31,0,0,1-4.89-1,1.72,1.72,0,0,0-1.8,0,10.32,10.32,0,0,1-4.9,1,12.79,12.79,0,0,1-3.68-.5,1.6,1.6,0,0,0-2.11,1.52v6.4c0,8.91,4.16,12.15,10.64,16.85a1.62,1.62,0,0,0,1.9,0c6.48-4.7,10.64-7.94,10.64-16.85v-6.4a1.61,1.61,0,0,0-2.12-1.52A12.74,12.74,0,0,1,247.69,198.68Z"
            style="fill: rgb(44, 40, 219); transform-origin: 241.9px 210.342px;" id="elvilv4147elo"
            class="animable"></path>
        <g id="elc5sw1dbmtlm">
            <path
                d="M247.69,198.68a10.31,10.31,0,0,1-4.89-1,1.72,1.72,0,0,0-1.8,0,10.32,10.32,0,0,1-4.9,1,12.79,12.79,0,0,1-3.68-.5,1.6,1.6,0,0,0-2.11,1.52v6.4c0,8.91,4.16,12.15,10.64,16.85a1.62,1.62,0,0,0,1.9,0c6.48-4.7,10.64-7.94,10.64-16.85v-6.4a1.61,1.61,0,0,0-2.12-1.52A12.74,12.74,0,0,1,247.69,198.68Z"
                style="fill: rgb(255, 255, 255); opacity: 0.3; transform-origin: 241.9px 210.342px;"
                class="animable"></path>
        </g>
        <g id="elcn1f4q23zy">
            <path
                d="M241,197.66a10.32,10.32,0,0,1-4.9,1,12.84,12.84,0,0,1-3.68-.5,1.6,1.6,0,0,0-2.11,1.52v6.4c0,8.91,4.16,12.15,10.64,16.85a1.63,1.63,0,0,0,1,.31V197.4A1.74,1.74,0,0,0,241,197.66Z"
                style="fill: rgb(255, 255, 255); opacity: 0.2; transform-origin: 236.13px 210.32px;"
                class="animable"></path>
        </g>
        <path
            d="M251.19,204.36a26,26,0,0,0-10.12,7.13,13.94,13.94,0,0,0-6.53-2.61l-.31,0v1.53l.17.06a13.38,13.38,0,0,1,6.48,5l.25.36.21-.39a24.81,24.81,0,0,1,10.07-10.08l.15-.07v-1Z"
            style="fill: rgb(38, 50, 56); transform-origin: 242.895px 210.06px;" id="el0jvt2o04gzdk"
            class="animable"></path>
        <path
            d="M275.15,161.36h-4.42a4,4,0,0,1-4.05-4.44l.39-4.42a4.93,4.93,0,0,1,4.82-4.44h4.42a4,4,0,0,1,4.06,4.44l-.39,4.42A5,5,0,0,1,275.15,161.36Z"
            style="fill: rgb(44, 40, 219); transform-origin: 273.525px 154.71px;" id="els1ueuazqmbg"
            class="animable"></path>
        <polygon
            points="276.99 152.49 276.03 151.43 273.61 153.65 271.59 151.43 270.44 152.49 272.47 154.71 270.06 156.93 271.02 157.98 273.43 155.76 275.46 157.98 276.6 156.93 274.57 154.71 276.99 152.49"
            style="fill: rgb(255, 255, 255); transform-origin: 273.525px 154.705px;"
            id="elf6ii6wymihj" class="animable"></polygon>
    </g>
</svg>