<?xml version="1.0" standalone="no"?>
<svg viewBox="0 0 200 200" xmlns="http://www.w3.org/2000/svg">
  <path fill="#8A3FFA" d="M38.6,-62C52.6,-58.8,68.2,-53.6,75.6,-42.9C83,-32.2,82.3,-16.1,81,-0.7C79.8,14.6,77.9,29.3,72.3,43.1C66.6,56.8,57.2,69.7,44.5,78.7C31.8,87.6,15.9,92.5,2.3,88.5C-11.3,84.6,-22.6,71.7,-36,63.2C-49.3,54.6,-64.7,50.4,-70.4,40.6C-76.2,30.8,-72.4,15.4,-71.1,0.7C-69.9,-13.9,-71.1,-27.8,-67.1,-40.8C-63.1,-53.7,-54,-65.7,-42,-70C-29.9,-74.3,-15,-70.9,-1.3,-68.6C12.3,-66.4,24.7,-65.2,38.6,-62Z" transform="translate(100 100)" />
</svg>
