<svg class="animated" id="freepik_stories-conversation" xmlns="http://www.w3.org/2000/svg"
    viewBox="0 0 500 500" version="1.1" xmlns:xlink="http://www.w3.org/1999/xlink"
    xmlns:svgjs="http://svgjs.com/svgjs">
    <style>svg#freepik_stories-conversation:not(.animated) .animable {opacity:
        0;}svg#freepik_stories-conversation.animated #freepik--background-complete--inject-5
        {animation: 1s 1 forwards cubic-bezier(.36,-0.01,.5,1.38) zoomOut;animation-delay:
        0s;}svg#freepik_stories-conversation.animated #freepik--Shadow--inject-5 {animation: 1s 1
        forwards cubic-bezier(.36,-0.01,.5,1.38) slideDown;animation-delay:
        0s;}svg#freepik_stories-conversation.animated #freepik--Smartphone--inject-5 {animation: 1s
        1 forwards cubic-bezier(.36,-0.01,.5,1.38) lightSpeedRight;animation-delay:
        0s;}svg#freepik_stories-conversation.animated #freepik--character-2--inject-5 {animation: 1s
        1 forwards cubic-bezier(.36,-0.01,.5,1.38) lightSpeedRight;animation-delay:
        0s;}svg#freepik_stories-conversation.animated #freepik--character-1--inject-5 {animation: 1s
        1 forwards cubic-bezier(.36,-0.01,.5,1.38) slideRight;animation-delay: 0s;} @keyframes
        zoomOut { 0% { opacity: 0; transform: scale(1.5); } 100% { opacity: 1; transform: scale(1);
        } } @keyframes slideDown { 0% { opacity: 0; transform: translateY(-30px); } 100% { opacity:
        1; transform: translateY(0); } } @keyframes lightSpeedRight { from { transform:
        translate3d(50%, 0, 0) skewX(-20deg); opacity: 0; } 60% { transform: skewX(10deg); opacity:
        1; } 80% { transform: skewX(-2deg); } to { opacity: 1; transform: translate3d(0, 0, 0); } }
        @keyframes slideRight { 0% { opacity: 0; transform: translateX(30px); } 100% { opacity: 1;
        transform: translateX(0); } } .animator-hidden { display: none; }</style>
    <g id="freepik--background-complete--inject-5" class="animable animator-hidden"
        style="transform-origin: 250px 225.795px;">
        <rect y="382.4" width="500" height="0.25"
            style="fill: rgb(235, 235, 235); transform-origin: 250px 382.525px;" id="elclok0jma31"
            class="animable"></rect>
        <rect x="288.4" y="396.34" width="33.12" height="0.25"
            style="fill: rgb(235, 235, 235); transform-origin: 304.96px 396.465px;"
            id="elph1i2ivwsa" class="animable"></rect>
        <rect x="407.08" y="393.63" width="8.69" height="0.25"
            style="fill: rgb(235, 235, 235); transform-origin: 411.425px 393.755px;"
            id="elkqcfur9oyeo" class="animable"></rect>
        <rect x="327.67" y="389.21" width="68.92" height="0.25"
            style="fill: rgb(235, 235, 235); transform-origin: 362.13px 389.335px;"
            id="elbfab2ykgqx8" class="animable"></rect>
        <rect x="194.84" y="395.11" width="30.3" height="0.25"
            style="fill: rgb(235, 235, 235); transform-origin: 209.99px 395.235px;"
            id="elchk697ql9ls" class="animable"></rect>
        <rect x="166.72" y="395.11" width="19.22" height="0.25"
            style="fill: rgb(235, 235, 235); transform-origin: 176.33px 395.235px;"
            id="ell7rry8fgvaf" class="animable"></rect>
        <rect x="52.46" y="390.89" width="46.84" height="0.25"
            style="fill: rgb(235, 235, 235); transform-origin: 75.88px 391.015px;"
            id="eljnk8x2kguhg" class="animable"></rect>
        <path
            d="M237,337.8H43.91a5.71,5.71,0,0,1-5.7-5.71V60.66A5.71,5.71,0,0,1,43.91,55H237a5.71,5.71,0,0,1,5.71,5.71V332.09A5.71,5.71,0,0,1,237,337.8ZM43.91,55.2a5.46,5.46,0,0,0-5.45,5.46V332.09a5.46,5.46,0,0,0,5.45,5.46H237a5.47,5.47,0,0,0,5.46-5.46V60.66A5.47,5.47,0,0,0,237,55.2Z"
            style="fill: rgb(235, 235, 235); transform-origin: 140.46px 196.4px;" id="elbhfwssjwadh"
            class="animable"></path>
        <path
            d="M453.31,337.8H260.21a5.72,5.72,0,0,1-5.71-5.71V60.66A5.72,5.72,0,0,1,260.21,55h193.1A5.71,5.71,0,0,1,459,60.66V332.09A5.71,5.71,0,0,1,453.31,337.8ZM260.21,55.2a5.47,5.47,0,0,0-5.46,5.46V332.09a5.47,5.47,0,0,0,5.46,5.46h193.1a5.47,5.47,0,0,0,5.46-5.46V60.66a5.47,5.47,0,0,0-5.46-5.46Z"
            style="fill: rgb(235, 235, 235); transform-origin: 356.75px 196.4px;" id="eldh9zg4s5tif"
            class="animable"></path>
        <g id="elh7e9oh9ohr8">
            <rect x="57.34" y="77.96" width="170.29" height="156.78"
                style="fill: rgb(230, 230, 230); transform-origin: 142.485px 156.35px; transform: rotate(180deg);"
                class="animable"></rect>
        </g>
        <g id="el7xxxe63ex7d">
            <rect x="53.3" y="77.96" width="172.58" height="156.78"
                style="fill: rgb(245, 245, 245); transform-origin: 139.59px 156.35px; transform: rotate(180deg);"
                class="animable"></rect>
        </g>
        <g id="elq7ybzxca2e">
            <rect x="69.04" y="77.32" width="141.1" height="158.07"
                style="fill: rgb(250, 250, 250); transform-origin: 139.59px 156.355px; transform: rotate(90deg);"
                class="animable"></rect>
        </g>
        <polygon points="199.09 226.9 145.93 85.81 123.55 85.81 176.71 226.9 199.09 226.9"
            style="fill: rgb(255, 255, 255); transform-origin: 161.32px 156.355px;"
            id="el5vrwhphxjrn" class="animable"></polygon>
        <polygon points="170.36 226.9 117.21 85.81 101.8 85.81 154.95 226.9 170.36 226.9"
            style="fill: rgb(255, 255, 255); transform-origin: 136.08px 156.355px;"
            id="el3m3iobd1nm" class="animable"></polygon>
        <g id="elgn0gnd0r8al">
            <rect x="47.84" y="152.02" width="141.1" height="8.66"
                style="fill: rgb(230, 230, 230); transform-origin: 118.39px 156.35px; transform: rotate(90deg);"
                class="animable"></rect>
        </g>
        <g id="eljuyafywmxfm">
            <rect x="96.03" y="152.03" width="141.1" height="8.66"
                style="fill: rgb(230, 230, 230); transform-origin: 166.58px 156.36px; transform: rotate(90deg);"
                class="animable"></rect>
        </g>
        <g id="elk8w3qdsjzgl">
            <rect x="39.73" y="150.45" width="151.9" height="10.94"
                style="fill: rgb(245, 245, 245); transform-origin: 115.68px 155.92px; transform: rotate(90deg);"
                class="animable"></rect>
        </g>
        <g id="ela4dzw3fw90c">
            <rect x="87.93" y="150.45" width="151.9" height="10.94"
                style="fill: rgb(245, 245, 245); transform-origin: 163.88px 155.92px; transform: rotate(90deg);"
                class="animable"></rect>
        </g>
        <g id="elsv9apttiarc">
            <rect x="-9.61" y="155.97" width="141.1" height="0.77"
                style="fill: rgb(230, 230, 230); transform-origin: 60.94px 156.355px; transform: rotate(90deg);"
                class="animable"></rect>
        </g>
        <g id="elpe72csbwc7n">
            <rect x="183.23" y="164.94" width="109.22" height="325.69"
                style="fill: rgb(240, 240, 240); transform-origin: 237.84px 327.785px; transform: rotate(90deg);"
                class="animable"></rect>
        </g>
        <g id="eloy36x2f6s4">
            <rect x="217.51" y="150.11" width="40.68" height="299.19" rx="2.72"
                style="fill: rgb(245, 245, 245); transform-origin: 237.85px 299.705px; transform: rotate(90deg);"
                class="animable"></rect>
        </g>
        <g id="elm4ylnrcbfl">
            <rect x="212.34" y="200.54" width="51.02" height="299.19" rx="2.72"
                style="fill: rgb(245, 245, 245); transform-origin: 237.85px 350.135px; transform: rotate(90deg);"
                class="animable"></rect>
        </g>
        <path
            d="M327.55,278.69H148.14a5.29,5.29,0,0,0,5.29,5.29H322.26A5.29,5.29,0,0,0,327.55,278.69Z"
            style="fill: rgb(240, 240, 240); transform-origin: 237.845px 281.335px;"
            id="elryhwlxmt77n" class="animable"></path>
        <path d="M327.55,324H148.14a5.29,5.29,0,0,0,5.29,5.29H322.26A5.29,5.29,0,0,0,327.55,324Z"
            style="fill: rgb(240, 240, 240); transform-origin: 237.845px 326.645px;"
            id="el9mqanf3kd4k" class="animable"></path>
        <g id="elpohslm0z4e">
            <rect x="358.23" y="315.63" width="109.22" height="24.31"
                style="fill: rgb(230, 230, 230); transform-origin: 412.84px 327.785px; transform: rotate(90deg);"
                class="animable"></rect>
        </g>
        <g id="el1oo9om43799">
            <rect x="234.48" y="106.96" width="6.73" height="325.69"
                style="fill: rgb(250, 250, 250); transform-origin: 237.845px 269.805px; transform: rotate(-90deg);"
                class="animable"></rect>
        </g>
        <path d="M372.06,256.69a9.75,9.75,0,0,0,19.5,0Z"
            style="fill: rgb(245, 245, 245); transform-origin: 381.81px 261.565px;"
            id="elmm3zmr7aedt" class="animable"></path>
        <path d="M346.07,256.69a9.75,9.75,0,0,0,19.5,0Z"
            style="fill: rgb(245, 245, 245); transform-origin: 355.82px 261.565px;"
            id="elg2gfwzs2kuh" class="animable"></path>
        <path d="M78.5,263.15c0,1.81,8.11,3.29,18.11,3.29s18.11-1.48,18.11-3.29Z"
            style="fill: rgb(245, 245, 245); transform-origin: 96.61px 264.795px;"
            id="elrpb5tavg9is" class="animable"></path>
        <path d="M78.5,261.42c0,1.82,8.11,3.3,18.11,3.3s18.11-1.48,18.11-3.3Z"
            style="fill: rgb(245, 245, 245); transform-origin: 96.61px 263.07px;" id="elhzt4of39qc"
            class="animable"></path>
        <g id="elbf2onug9d0w">
            <rect x="409.48" y="257.65" width="6.73" height="24.31"
                style="fill: rgb(224, 224, 224); transform-origin: 412.845px 269.805px; transform: rotate(-90deg);"
                class="animable"></rect>
        </g>
        <rect x="354.96" y="75.96" width="59.44" height="77.45"
            style="fill: rgb(235, 235, 235); transform-origin: 384.68px 114.685px;"
            id="el4onpjmmqb92" class="animable"></rect>
        <rect x="352.19" y="75.96" width="59.44" height="77.45"
            style="fill: rgb(245, 245, 245); transform-origin: 381.91px 114.685px;"
            id="elv0w2q5g5qo9" class="animable"></rect>
        <rect x="360.18" y="86.37" width="43.47" height="56.64"
            style="fill: rgb(255, 255, 255); transform-origin: 381.915px 114.69px;"
            id="elhqizuusobe" class="animable"></rect>
        <g id="elxcvd0cfst6a">
            <rect x="296.16" y="159.21" width="59.44" height="93.92"
                style="fill: rgb(235, 235, 235); transform-origin: 325.88px 206.17px; transform: rotate(-90deg);"
                class="animable"></rect>
        </g>
        <g id="elq9sh4eciapk">
            <rect x="293.3" y="159.21" width="59.44" height="93.92"
                style="fill: rgb(245, 245, 245); transform-origin: 323.02px 206.17px; transform: rotate(-90deg);"
                class="animable"></rect>
        </g>
        <g id="elp49oz41vgo">
            <rect x="301.29" y="169.62" width="43.47" height="73.1"
                style="fill: rgb(255, 255, 255); transform-origin: 323.025px 206.17px; transform: rotate(-90deg);"
                class="animable"></rect>
        </g>
        <rect x="398.84" y="169.34" width="48.33" height="47.62"
            style="fill: rgb(235, 235, 235); transform-origin: 423.005px 193.15px;"
            id="el2qxofsdn9yq" class="animable"></rect>
        <rect x="396.07" y="169.34" width="48.33" height="47.62"
            style="fill: rgb(245, 245, 245); transform-origin: 420.235px 193.15px;"
            id="elp24u392daia" class="animable"></rect>
        <rect x="404.06" y="179.75" width="32.36" height="26.81"
            style="fill: rgb(255, 255, 255); transform-origin: 420.24px 193.155px;"
            id="el80goz41egoi" class="animable"></rect>
        <rect x="291.26" y="112.39" width="48.33" height="47.62"
            style="fill: rgb(235, 235, 235); transform-origin: 315.425px 136.2px;"
            id="el8ykyo3mkxzo" class="animable"></rect>
        <rect x="288.5" y="112.39" width="48.33" height="47.62"
            style="fill: rgb(245, 245, 245); transform-origin: 312.665px 136.2px;"
            id="elob2m1w0wm6n" class="animable"></rect>
        <rect x="296.49" y="122.8" width="32.36" height="26.81"
            style="fill: rgb(255, 255, 255); transform-origin: 312.67px 136.205px;"
            id="el89lwr74zoqo" class="animable"></rect>
    </g>
    <g id="freepik--Shadow--inject-5" class="animable" style="transform-origin: 250px 416.24px;">
        <ellipse id="freepik--path--inject-5" cx="250" cy="416.24" rx="193.89" ry="11.32"
            style="fill: rgb(245, 245, 245); transform-origin: 250px 416.24px;" class="animable"></ellipse>
    </g>
    <g id="freepik--Smartphone--inject-5" class="animable"
        style="transform-origin: 234.1px 261.69px;">
        <rect x="315.75" y="128.08" width="1.04" height="6.58"
            style="fill: rgb(64, 123, 255); transform-origin: 316.27px 131.37px;" id="ela6fksrd0yzh"
            class="animable"></rect>
        <path
            d="M316.79,122.73h-1a14.47,14.47,0,0,0-14.46-14.45v-1A15.51,15.51,0,0,1,316.79,122.73Z"
            style="fill: rgb(64, 123, 255); transform-origin: 309.06px 115.005px;"
            id="el0bl912yow3qp" class="animable"></path>
        <rect x="151.41" y="110.88" width="161.74" height="305.22" rx="11.86"
            style="fill: rgb(64, 123, 255); transform-origin: 232.28px 263.49px;" id="el33bnllku3z"
            class="animable"></rect>
        <g id="ell6urdxep9w">
            <rect x="83.43" y="187.19" width="296.09" height="152.6" rx="7.29"
                style="fill: rgb(255, 255, 255); opacity: 0.95; transform-origin: 231.475px 263.49px; transform: rotate(90deg);"
                class="animable"></rect>
        </g>
        <circle cx="231.48" cy="391.98" r="8.25"
            style="fill: rgb(64, 123, 255); transform-origin: 231.48px 391.98px;" id="eleoj8trksjf"
            class="animable"></circle>
        <path d="M225.17,114.61a6.81,6.81,0,0,0,13.62,0Z"
            style="fill: rgb(64, 123, 255); transform-origin: 231.98px 118.008px;"
            id="elfcu51ndon5m" class="animable"></path>
        <g id="elb6axbdzek7i">
            <path
                d="M276.51,144.16h-89a13.74,13.74,0,0,0-13.7,13.7V167a13.74,13.74,0,0,0,13.7,13.7h89l13.7,8.12v-31A13.75,13.75,0,0,0,276.51,144.16Z"
                style="fill: rgb(64, 123, 255); opacity: 0.7; transform-origin: 232.01px 166.49px;"
                class="animable"></path>
        </g>
        <rect x="189.94" y="157.25" width="84.09" height="2.28"
            style="fill: rgb(255, 255, 255); transform-origin: 231.985px 158.39px;" id="ele45ku7sgr"
            class="animable"></rect>
        <rect x="206.12" y="165.33" width="67.91" height="2.28"
            style="fill: rgb(255, 255, 255); transform-origin: 240.075px 166.47px;"
            id="el8zpsegmr3u4" class="animable"></rect>
        <g id="elrck2h4pd9b">
            <path
                d="M187.46,205h89a13.74,13.74,0,0,1,13.7,13.7v9.13a13.74,13.74,0,0,1-13.7,13.7h-89l-13.7,8.12v-31A13.73,13.73,0,0,1,187.46,205Z"
                style="fill: rgb(64, 123, 255); opacity: 0.15; transform-origin: 231.96px 227.325px;"
                class="animable"></path>
        </g>
        <g id="el47pbivp4548">
            <rect x="189.94" y="218.08" width="84.09" height="2.28"
                style="fill: rgb(64, 123, 255); opacity: 0.5; transform-origin: 231.985px 219.22px;"
                class="animable"></rect>
        </g>
        <g id="el672sgvwyrpn">
            <rect x="189.94" y="226.17" width="39" height="2.28"
                style="fill: rgb(64, 123, 255); opacity: 0.5; transform-origin: 209.44px 227.31px;"
                class="animable"></rect>
        </g>
        <g id="el83hbh0phf5">
            <rect x="235.03" y="226.17" width="15.86" height="2.28"
                style="fill: rgb(64, 123, 255); opacity: 0.5; transform-origin: 242.96px 227.31px;"
                class="animable"></rect>
        </g>
        <g id="elvtvq5shhx0n">
            <path
                d="M276.51,265.83h-89a13.74,13.74,0,0,0-13.7,13.7v9.13a13.73,13.73,0,0,0,13.7,13.7h89l13.7,8.12v-31A13.75,13.75,0,0,0,276.51,265.83Z"
                style="fill: rgb(64, 123, 255); opacity: 0.7; transform-origin: 232.01px 288.155px;"
                class="animable"></path>
        </g>
        <rect x="189.94" y="278.91" width="84.09" height="2.28"
            style="fill: rgb(255, 255, 255); transform-origin: 231.985px 280.05px;"
            id="elg2zcuhv6a6o" class="animable"></rect>
        <rect x="206.12" y="287" width="67.91" height="2.28"
            style="fill: rgb(255, 255, 255); transform-origin: 240.075px 288.14px;"
            id="eltaoupyk0j6" class="animable"></rect>
        <g id="eloe9fe4jiu3">
            <path
                d="M187.46,326.66h34.63a13.75,13.75,0,0,1,13.7,13.7v9.14a13.75,13.75,0,0,1-13.7,13.7H187.46l-13.7,8.11V340.36A13.74,13.74,0,0,1,187.46,326.66Z"
                style="fill: rgb(64, 123, 255); opacity: 0.15; transform-origin: 204.775px 348.985px;"
                class="animable"></path>
        </g>
        <g id="elj9d83ugi9zd">
            <path d="M194.4,344.93a4,4,0,1,1-4-4A4.05,4.05,0,0,1,194.4,344.93Z"
                style="fill: rgb(64, 123, 255); opacity: 0.5; transform-origin: 190.4px 344.93px;"
                class="animable"></path>
        </g>
        <g id="el3oi7c4r0qcm">
            <circle cx="202.49" cy="341.69" r="4.05"
                style="fill: rgb(64, 123, 255); opacity: 0.5; transform-origin: 202.49px 341.69px;"
                class="animable"></circle>
        </g>
        <g id="elued0in4iytt">
            <path d="M218.67,349.78a4,4,0,1,1-4-4A4,4,0,0,1,218.67,349.78Z"
                style="fill: rgb(64, 123, 255); opacity: 0.5; transform-origin: 214.67px 349.78px;"
                class="animable"></path>
        </g>
    </g>
    <g id="freepik--character-2--inject-5" class="animable"
        style="transform-origin: 365.913px 349.047px;">
        <path
            d="M344.33,335.2c1.1,2.19,2.08,4.39,3.11,6.59s2,4.44,2.92,6.68,1.88,4.49,2.76,6.78,1.77,4.58,2.58,7l-3.58-3.37A20.9,20.9,0,0,0,358.6,360a52.82,52.82,0,0,0,7.66-.35c2.64-.28,5.3-.72,8-1.22s5.4-1.12,8-1.73l2.37,5.76a68.34,68.34,0,0,1-8.06,3.77,73.44,73.44,0,0,1-8.49,2.82,51.52,51.52,0,0,1-9.16,1.6,29.12,29.12,0,0,1-10.29-.84l-2.35-.65L345,366.41c-1.92-4.21-4-8.53-6-12.84-1-2.16-2.05-4.33-3.05-6.5s-2-4.35-3-6.53Z"
            style="fill: rgb(255, 195, 189); transform-origin: 358.79px 352.993px;"
            id="el9khnutyw45d" class="animable"></path>
        <path d="M379,358.46l3.93-3.84,6.24,6.75s-2.26,3.95-7.88,1.65Z"
            style="fill: rgb(255, 195, 189); transform-origin: 384.085px 359.18px;"
            id="eluyhnxkrqxik" class="animable"></path>
        <polygon points="388.86 352.08 392.3 357.69 389.18 361.37 382.94 354.62 388.86 352.08"
            style="fill: rgb(255, 195, 189); transform-origin: 387.62px 356.725px;"
            id="el2gma1lckhvf" class="animable"></polygon>
        <path
            d="M326.67,326.21c8-3.09,14.2,1.52,24.31,14.28l-11.84,12.17S311.07,332.19,326.67,326.21Z"
            style="fill: rgb(38, 50, 56); transform-origin: 336.465px 338.972px;" id="elazu0axxn60e"
            class="animable"></path>
        <g id="eloubh8kioze">
            <path
                d="M341.69,339.41c-3.78-2.45-7.07-1.76-9.85.52,1.05,3.89,3.74,8.35,6.33,12,.61.48,1,.74,1,.74l6.6-6.79A9.14,9.14,0,0,0,341.69,339.41Z"
                style="opacity: 0.2; transform-origin: 338.805px 345.269px;" class="animable"></path>
        </g>
        <polygon points="387.6 411.04 397.18 409.93 396.38 390.29 386.81 391.39 387.6 411.04"
            style="fill: rgb(255, 195, 189); transform-origin: 391.995px 400.665px;"
            id="elw9rh7cmb2tj" class="animable"></polygon>
        <path
            d="M397.26,405.8l-10.79.15a.73.73,0,0,0-.69.66l-1.22,8.49a1.42,1.42,0,0,0,1.35,1.67c3.35-.11,4.89-.36,9.12-.43,2.61,0,10.47.15,14.07.1s3.84-4,2.35-4.35c-6.69-1.5-10.54-3.65-12.77-5.73A2,2,0,0,0,397.26,405.8Z"
            style="fill: rgb(38, 50, 56); transform-origin: 398.424px 411.285px;" id="el84g861qpnq5"
            class="animable"></path>
        <path
            d="M399.55,403.3a1,1,0,0,1,.92.11.71.71,0,0,1,.39.55c.12,1-2,2.8-2.29,3a.17.17,0,0,1-.2,0,.19.19,0,0,1-.1-.19c.07-1.08.32-3,1.17-3.43Zm-.87,3.06c.84-.73,1.88-1.83,1.81-2.38,0-.06,0-.15-.17-.23a.67.67,0,0,0-.69-.06C399.17,403.94,398.82,404.93,398.68,406.36Z"
            style="fill: rgb(64, 123, 255); transform-origin: 399.567px 405.114px;"
            id="ellt2of6b8fw" class="animable"></path>
        <path
            d="M399.45,406a3,3,0,0,1,2.32-.2.72.72,0,0,1,.31.8.91.91,0,0,1-.47.67c-1,.55-3.12-.27-3.21-.3a.24.24,0,0,1-.13-.15.19.19,0,0,1,.06-.18A3.76,3.76,0,0,1,399.45,406Zm1.86,1,.11-.05a.62.62,0,0,0,.3-.43c0-.24-.05-.33-.13-.37-.48-.31-1.95.09-2.74.6A4.52,4.52,0,0,0,401.31,407Z"
            style="fill: rgb(64, 123, 255); transform-origin: 400.186px 406.557px;"
            id="eljrx7h1pcgnr" class="animable"></path>
        <g id="eltgll9hmlpvg">
            <polygon points="386.81 391.4 396.38 390.29 396.79 400.42 387.17 400.46 386.81 391.4"
                style="opacity: 0.2; transform-origin: 391.8px 395.375px;" class="animable"></polygon>
        </g>
        <path
            d="M339.84,380s24.86-23.12,41-23.47c11.78-.25,20.2,38.71,20.2,38.71l-14,.27s-2.46-13.78-11.61-17.58c-13.22,19.84-67.11,59.05-62,16.54C321.43,391.46,339.84,380,339.84,380Z"
            style="fill: rgb(64, 123, 255); transform-origin: 357.065px 385.011px;"
            id="elbrot4o9fs3o" class="animable"></path>
        <g id="eloqcoae9vx3s">
            <path
                d="M339.84,380s24.86-23.12,41-23.47c11.78-.25,20.2,38.71,20.2,38.71l-14,.27s-2.46-13.78-11.61-17.58c-13.22,19.84-67.11,59.05-62,16.54C321.43,391.46,339.84,380,339.84,380Z"
                style="opacity: 0.2; transform-origin: 357.065px 385.011px;" class="animable"></path>
        </g>
        <polygon points="400.99 397.17 384.53 398.75 384.58 392.75 401.99 390.68 400.99 397.17"
            style="fill: rgb(38, 50, 56); transform-origin: 393.26px 394.715px;" id="elj1kd7gb5rh"
            class="animable"></polygon>
        <path
            d="M307.2,395.94s-10.69-20.88-12-54.51c-.3-7.92,6.83-15.39,15-15.81,6.86-.36,14.12-.45,20-.43s10.38,3.92,11.05,9.58c1.48,12.48,1.74,31.43,9.39,54Z"
            style="fill: rgb(38, 50, 56); transform-origin: 322.915px 360.564px;" id="elbq1e7aubydk"
            class="animable"></path>
        <g id="elm70ce4x7fd">
            <path
                d="M300.21,341.6c5.89-6.65,7.92-4.53,8.8-3.73,8.16,7.39-3.82,30.4-6.22,33.79a165.91,165.91,0,0,1-3-26.06A13.44,13.44,0,0,1,300.21,341.6Z"
                style="opacity: 0.2; transform-origin: 305.797px 354.283px;" class="animable"></path>
        </g>
        <path
            d="M318.16,305.63c-.66,6.13-2.28,15.54-6.45,19.91,3.28,3.09,8.62,6.13,16.21,7.4,3.92-1.62,4.44-5.23,2.54-7.74-6.7-1.17-6.62-3.07-4.09-7.34Z"
            style="fill: rgb(255, 195, 189); transform-origin: 321.618px 319.285px;"
            id="el5y0v8240bhj" class="animable"></path>
        <g id="el3s1t04vvf6s">
            <path
                d="M321.51,310.62l4.86,7.23a12.67,12.67,0,0,0-1.49,3.21c-2.38-1-5-4.64-4.48-7.32A9.36,9.36,0,0,1,321.51,310.62Z"
                style="opacity: 0.2; transform-origin: 323.352px 315.84px;" class="animable"></path>
        </g>
        <path d="M335.72,294.33c3.93,4.17,12.19,4.19,8.64-.75S332.66,291.08,335.72,294.33Z"
            style="fill: rgb(38, 50, 56); transform-origin: 340.136px 294.075px;" id="eloo1lek9fm7"
            class="animable"></path>
        <path
            d="M319.79,293.88c-2.19,8-3.87,12.48-1.38,18a10.64,10.64,0,0,0,18.85,1.49c4-6.32,6.94-18.27.53-24.34A10.69,10.69,0,0,0,319.79,293.88Z"
            style="fill: rgb(255, 195, 189); transform-origin: 329.352px 302.109px;"
            id="elzbo83nvj96d" class="animable"></path>
        <path
            d="M318,301.3c1-.18,5.94-1.68,8.35-4,2.71-2.61,2.73-5.14,2-6.29s-6.45-3.36-9.12-2.85c-4.22.81-3.18,8.28-3.12,10.3A3.35,3.35,0,0,0,318,301.3Z"
            style="fill: rgb(255, 195, 189); transform-origin: 322.356px 294.692px;"
            id="el0830olpa7jv" class="animable"></path>
        <g id="el0inrvcsh741p">
            <path
                d="M318,301.3c1-.18,5.94-1.68,8.35-4,2.71-2.61,2.73-5.14,2-6.29s-6.45-3.36-9.12-2.85c-4.22.81-3.18,8.28-3.12,10.3A3.35,3.35,0,0,0,318,301.3Z"
                style="fill: rgb(38, 50, 56); opacity: 0.7; transform-origin: 322.356px 294.692px;"
                class="animable"></path>
        </g>
        <path
            d="M313.81,301.85a7.52,7.52,0,0,0,3.91,3.82c2.3.93,3.61-1,3.11-3.35-.45-2.07-2.19-5.06-4.56-5S312.87,299.73,313.81,301.85Z"
            style="fill: rgb(255, 195, 189); transform-origin: 317.2px 301.614px;"
            id="eldj9cpunf258" class="animable"></path>
        <path
            d="M321.33,290.55c10.2,2.18,17.45,7.92,22.27,4.47,3.41-2.44,1.17-6.89-2.74-10.11-3.34-2.75-8-3.6-9.4-5.85a3.86,3.86,0,0,0,1.58,4s-9.21-1.42-11.76-3.82c-.61,1.43,1.75,4.19,1.75,4.19s-2.6,2.47-10-.32C313.47,285.5,315.53,289.31,321.33,290.55Z"
            style="fill: rgb(38, 50, 56); transform-origin: 329.153px 287.579px;" id="elkvezk66in98"
            class="animable"></path>
        <path
            d="M341.59,295.83h-.4l0-.52a4.06,4.06,0,0,0,4.25-2.47,5.53,5.53,0,0,0-1.84-6.2,13.81,13.81,0,0,0-2.87-1.72c-2.37-1.19-5.06-2.54-6.36-6.47l.49-.16c1.23,3.72,3.71,5,6.11,6.16a14.49,14.49,0,0,1,3,1.8,6,6,0,0,1,2,6.79A4.49,4.49,0,0,1,341.59,295.83Z"
            style="fill: rgb(38, 50, 56); transform-origin: 340.346px 287.063px;" id="elw5x3krozy6c"
            class="animable"></path>
        <path
            d="M331.35,301.65c-.22.63-.06,1.28.34,1.44s.91-.22,1.13-.85.06-1.28-.34-1.44S331.56,301,331.35,301.65Z"
            style="fill: rgb(38, 50, 56); transform-origin: 332.085px 301.944px;" id="elywjp1clxri"
            class="animable"></path>
        <path
            d="M338.89,303.93c-.21.63-.06,1.27.35,1.43s.91-.21,1.12-.85.07-1.27-.34-1.44S339.11,303.29,338.89,303.93Z"
            style="fill: rgb(38, 50, 56); transform-origin: 339.626px 304.214px;" id="elcijitnuepzj"
            class="animable"></path>
        <path d="M336.12,303.16a25.22,25.22,0,0,0,1.12,6.6c-1.46.6-3.17-.62-3.17-.62Z"
            style="fill: rgb(237, 132, 126); transform-origin: 335.655px 306.543px;"
            id="el466m9xmy4w2" class="animable"></path>
        <path
            d="M330,310.66a5.88,5.88,0,0,1-2.8-3.48.18.18,0,0,1,.14-.23.19.19,0,0,1,.23.15,5.65,5.65,0,0,0,3.35,3.56.2.2,0,0,1,.11.26.17.17,0,0,1-.24.11A6.45,6.45,0,0,1,330,310.66Z"
            style="fill: rgb(38, 50, 56); transform-origin: 329.118px 308.996px;" id="el36l1ygxx5ba"
            class="animable"></path>
        <path
            d="M329.3,297.51a.4.4,0,0,1-.15-.14.39.39,0,0,1,.11-.54,3.69,3.69,0,0,1,3.49-.35.4.4,0,0,1,.2.53.37.37,0,0,1-.5.19h0a3,3,0,0,0-2.76.31A.39.39,0,0,1,329.3,297.51Z"
            style="fill: rgb(38, 50, 56); transform-origin: 331.036px 296.879px;" id="el1c2kvb1md86"
            class="animable"></path>
        <path
            d="M341.46,302.06a.41.41,0,0,1-.26-.27,3.31,3.31,0,0,0-1.9-2.2.41.41,0,0,1-.26-.5.36.36,0,0,1,.47-.25,4.08,4.08,0,0,1,2.42,2.74.38.38,0,0,1-.25.49A.41.41,0,0,1,341.46,302.06Z"
            style="fill: rgb(38, 50, 56); transform-origin: 340.488px 300.45px;" id="elnowpnwythz"
            class="animable"></path>
        <polygon points="420.83 415.71 426.53 407.42 411.18 394.05 405.48 402.34 420.83 415.71"
            style="fill: rgb(255, 195, 189); transform-origin: 416.005px 404.88px;"
            id="elwxq7vdewd3s" class="animable"></polygon>
        <path
            d="M422.59,403.5l-6.69,8.33a.78.78,0,0,0,0,1l5.21,6.48a1.32,1.32,0,0,0,2.06,0c2.11-2.72,3.52-4.81,6.23-8.19,1.67-2.08,6.92-8.16,9.23-11s-.33-5.64-1.54-4.68c-5.43,4.29-10.26,6.92-13.18,7.32A2.1,2.1,0,0,0,422.59,403.5Z"
            style="fill: rgb(38, 50, 56); transform-origin: 427.633px 407.526px;" id="elpk84powozr"
            class="animable"></path>
        <path
            d="M422.15,400.08a1.07,1.07,0,0,1,.64-.68.74.74,0,0,1,.68,0c.91.53,1,3.31,1,3.63a.19.19,0,0,1-.12.17.2.2,0,0,1-.21,0c-.82-.7-2.18-2-2-3A.43.43,0,0,1,422.15,400.08Zm1.93,2.53c-.08-1.12-.33-2.6-.81-2.88a.34.34,0,0,0-.3,0,.71.71,0,0,0-.46.52C422.44,400.77,423,401.64,424.08,402.61Z"
            style="fill: rgb(64, 123, 255); transform-origin: 423.297px 401.273px;"
            id="elq0g90nghyrm" class="animable"></path>
        <path
            d="M424.27,401.78c.23-.85.67-1.77,1.22-2a.72.72,0,0,1,.83.23.94.94,0,0,1,.26.78c-.14,1.1-2.08,2.34-2.17,2.39a.18.18,0,0,1-.19,0,.16.16,0,0,1-.11-.15A3.79,3.79,0,0,1,424.27,401.78Zm1.9-.91s0-.07,0-.11a.57.57,0,0,0-.17-.49c-.16-.18-.28-.17-.37-.13-.53.2-1.09,1.62-1.16,2.55A4.62,4.62,0,0,0,426.17,400.87Z"
            style="fill: rgb(64, 123, 255); transform-origin: 425.348px 401.469px;"
            id="elg3v53s1yndo" class="animable"></path>
        <g id="el3qveb58w3im">
            <polygon points="405.48 402.34 411.18 394.05 419.1 400.94 412.56 408.51 405.48 402.34"
                style="opacity: 0.2; transform-origin: 412.29px 401.28px;" class="animable"></polygon>
        </g>
        <path
            d="M322.81,392.89s43.7-44.4,63.37-25.4c12.25,11.84,30.25,28.15,30.25,28.15L406,405.79s-26.42-14.05-33.3-21.81c-36.1,40.36-68.36,43.12-65.46,12A122,122,0,0,1,322.81,392.89Z"
            style="fill: rgb(64, 123, 255); transform-origin: 361.744px 389.917px;"
            id="elzo4zdmeb7pn" class="animable"></path>
        <polygon points="419.54 395.73 408.08 410.13 403.22 406.87 414.93 391.58 419.54 395.73"
            style="fill: rgb(38, 50, 56); transform-origin: 411.38px 400.855px;" id="el3v6m1nk6qku"
            class="animable"></polygon>
        <path
            d="M307.35,338.61l.86,18.2c.16,3,.35,6,.58,9,.12,1.47.28,2.92.44,4.31.09.7.18,1.38.29,2s.23,1.2.31,1.55a.94.94,0,0,1,0,.16,2.14,2.14,0,0,0-.68-.74,1.7,1.7,0,0,0-.54-.26c-.11,0-.17,0-.12,0a5.67,5.67,0,0,0,2.45-.16,42.29,42.29,0,0,0,7.69-2.73c2.67-1.17,5.33-2.52,8-3.92s5.34-2.89,7.93-4.34l3.74,5a101,101,0,0,1-15.21,11.67c-1.39.85-2.83,1.67-4.35,2.44a34.77,34.77,0,0,1-4.93,2.08,20.83,20.83,0,0,1-2.95.74,13.77,13.77,0,0,1-3.73.18,9.8,9.8,0,0,1-2.36-.52,9.53,9.53,0,0,1-2.56-1.37,9.17,9.17,0,0,1-2.07-2.25,10,10,0,0,1-.68-1.23l-.38-.92a26.87,26.87,0,0,1-.89-2.91c-.22-.89-.4-1.72-.56-2.55-.33-1.65-.58-3.26-.8-4.85-.46-3.18-.79-6.32-1.07-9.45-.56-6.26-.89-12.45-1-18.74Z"
            style="fill: rgb(255, 195, 189); transform-origin: 316.53px 361.226px;"
            id="el6xpidhfg22n" class="animable"></path>
        <path d="M304.28,326.88c-4.71.53-11.76,5-12,25.78l20.2-1.59S322,324.85,304.28,326.88Z"
            style="fill: rgb(38, 50, 56); transform-origin: 303.657px 339.714px;" id="elm2vv1rqvoy"
            class="animable"></path>
        <path
            d="M351.55,351.15l-7.5.49a2.23,2.23,0,0,0-1.86,1.68l-3.51,16.48a1.13,1.13,0,0,0,1.19,1.48l7.5-.49a2.21,2.21,0,0,0,1.86-1.68l3.51-16.48A1.13,1.13,0,0,0,351.55,351.15Z"
            style="fill: rgb(64, 123, 255); transform-origin: 345.71px 361.215px;" id="elnycjbnf2qj"
            class="animable"></path>
        <path
            d="M335.17,361.29l6.21-2.16-1.53,9.73s-6.92,1.52-7.49-2.2l1-3.31A3.14,3.14,0,0,1,335.17,361.29Z"
            style="fill: rgb(255, 195, 189); transform-origin: 336.87px 364.149px;"
            id="el5mdfmlezt4s" class="animable"></path>
        <polygon points="348.48 359.95 345.79 368.61 339.85 368.86 341.38 359.13 348.48 359.95"
            style="fill: rgb(255, 195, 189); transform-origin: 344.165px 363.995px;"
            id="elxaiis0xdyho" class="animable"></polygon>
    </g>
    <g id="freepik--character-1--inject-5" class="animable"
        style="transform-origin: 140.16px 278.867px;">
        <path
            d="M133.38,156c-4.88-11.33,21.73-23.19,29.25-5.55,12.77,5.55-3.55,29.15.14,33.15s6.47-.85,6.47-.85,3.73,9.94-5.78,17.9c-8.52,7.15-34.15,9.09-34.21-5C129.17,177.33,139.78,170.85,133.38,156Z"
            style="fill: rgb(38, 50, 56); transform-origin: 149.605px 173.81px;" id="elpagkjfplmdr"
            class="animable"></path>
        <polygon points="157.85 393.86 150.69 398.03 133.5 378.38 142.42 370.33 157.85 393.86"
            style="fill: rgb(255, 139, 123); transform-origin: 145.675px 384.18px;"
            id="elr2jk8qigcwq" class="animable"></polygon>
        <path
            d="M149.87,396.23l7.39-5.67a.63.63,0,0,1,.84,0L163,395.4a1.28,1.28,0,0,1-.23,1.9c-2.6,1.93-3.95,2.74-7.2,5.24-2,1.53-6,4.89-8.74,7s-4.82-.32-3.85-1.43c4.38-5,5.33-8,6-10.67A2.28,2.28,0,0,1,149.87,396.23Z"
            style="fill: rgb(38, 50, 56); transform-origin: 153.03px 400.386px;" id="elbtzu4c6rck"
            class="animable"></path>
        <path
            d="M148.21,399.19a3.23,3.23,0,0,1-1.87.85,1,1,0,0,1-.82-.49.62.62,0,0,1,0-.59c.5-1,4.06-1.79,4.46-1.88a.2.2,0,0,1,.2.09.22.22,0,0,1,0,.22A14.62,14.62,0,0,1,148.21,399.19Zm-2.12-.37a.79.79,0,0,0-.25.28.21.21,0,0,0,0,.23.63.63,0,0,0,.53.33c.65,0,1.78-.74,3.06-2.08A10.9,10.9,0,0,0,146.09,398.82Z"
            style="fill: rgb(64, 123, 255); transform-origin: 147.827px 398.559px;"
            id="elqm2dv58e6cf" class="animable"></path>
        <path
            d="M150.09,397.41l-.08,0c-1,.27-3.57.13-4-.66-.09-.18-.12-.49.28-.86a1.53,1.53,0,0,1,1.05-.41c1.31,0,2.71,1.55,2.76,1.62a.17.17,0,0,1,0,.18A.22.22,0,0,1,150.09,397.41Zm-3.44-1.29-.09.08c-.26.24-.2.36-.18.4.24.48,2.07.71,3.21.55a4.05,4.05,0,0,0-2.26-1.25A1.09,1.09,0,0,0,146.65,396.12Z"
            style="fill: rgb(64, 123, 255); transform-origin: 148.04px 396.508px;"
            id="elkyqubvq0b2d" class="animable"></path>
        <path
            d="M131.82,197.08c-.47,2.15-1,4.09-1.6,6.1s-1.22,4-1.94,5.92a102.76,102.76,0,0,1-4.86,11.55l-1.47,2.8c-.53.92-1,1.84-1.6,2.75l-.86,1.35c-.3.46-.53.87-.94,1.41-.2.26-.4.52-.67.83a7.23,7.23,0,0,1-1.14,1.08,4.41,4.41,0,0,1-1.71.8,4.11,4.11,0,0,1-.88.1,3.62,3.62,0,0,1-1.07-.15,3.78,3.78,0,0,1-1.71-1,3.94,3.94,0,0,1-1-1.7,4.78,4.78,0,0,1-.19-.91,10.06,10.06,0,0,1,0-2.17c.07-.6.17-1.16.27-1.7.2-1.09.46-2.11.73-3.13a58.9,58.9,0,0,1,2-5.92l4,.88-.27,6c0,1-.06,1.94-.07,2.86,0,.46,0,.91,0,1.31a2.93,2.93,0,0,0,.12.85s0,0,0-.18a2.48,2.48,0,0,0-.62-1,3.25,3.25,0,0,0-1.4-.84,3.82,3.82,0,0,0-.88-.13,3.65,3.65,0,0,0-.7.08,3,3,0,0,0-1,.45c-.21.15-.13.07-.09,0l.23-.39,1.34-2.4c.45-.84.86-1.7,1.3-2.55l1.23-2.6c1.56-3.53,3-7.16,4.2-10.86.62-1.85,1.19-3.72,1.76-5.59s1.08-3.8,1.53-5.57Z"
            style="fill: rgb(255, 139, 123); transform-origin: 120.971px 213.59px;"
            id="elzyj681mxoc" class="animable"></path>
        <path
            d="M128.4,186.67c-2.9.47-7.5,18.9-7.5,18.9l6.69,5.15s6.71-13.32,7-19.31C134.79,187.07,130.59,186.32,128.4,186.67Z"
            style="fill: rgb(255, 139, 123); transform-origin: 127.748px 198.657px;"
            id="eln0pafmpyo7l" class="animable"></path>
        <path d="M117.91,216.86l-1.13-9.16-5.25,7.7a4.92,4.92,0,0,0,3.91,3.69Z"
            style="fill: rgb(255, 139, 123); transform-origin: 114.72px 213.395px;"
            id="el0vgaokimxln" class="animable"></path>
        <polygon points="154.6 409.41 146.6 409.68 145.07 381.76 156.17 381.92 154.6 409.41"
            style="fill: rgb(255, 139, 123); transform-origin: 150.62px 395.72px;"
            id="el2h1laro9wev" class="animable"></polygon>
        <path
            d="M146.06,407.13l9-.06a.58.58,0,0,1,.6.54l.54,7.09a1.41,1.41,0,0,1-1.38,1.43c-3.12,0-4.62-.21-8.56-.18-2.43,0-6,.29-9.34.32s-3.31-3.29-1.89-3.6c6.35-1.39,7.46-3.25,9.69-5A2.28,2.28,0,0,1,146.06,407.13Z"
            style="fill: rgb(38, 50, 56); transform-origin: 145.16px 411.67px;" id="elzbgwq7ohfni"
            class="animable"></path>
        <path
            d="M127.91,186.61s-4,1-4,48.33L156,237.78c1.61-13.19,2.91-21.3,13.54-47.72a90.29,90.29,0,0,0-13.33-3,100.43,100.43,0,0,0-14.56-1.29C135.25,185.78,127.91,186.61,127.91,186.61Z"
            style="fill: rgb(64, 123, 255); transform-origin: 146.725px 211.775px;"
            id="el6nj3vt1xy6k" class="animable"></path>
        <g id="elqgrfk6prtw">
            <path
                d="M163.17,196.1l1.71,5.83c-1.34,3.61-2.45,6.8-3.38,9.67A32.51,32.51,0,0,1,163.17,196.1Z"
                style="opacity: 0.2; transform-origin: 163.043px 203.85px;" class="animable"></path>
        </g>
        <polygon points="116.78 207.7 111.53 215.4 117.91 215.03 121.31 207.99 116.78 207.7"
            style="fill: rgb(255, 139, 123); transform-origin: 116.42px 211.55px;"
            id="elzhf1boodfsq" class="animable"></polygon>
        <path
            d="M120.11,225.41l6-.09a1.4,1.4,0,0,0,1.36-1.59l-1.87-13.45a1.38,1.38,0,0,0-1.4-1.2l-6,.09a1.38,1.38,0,0,0-1.36,1.58l1.87,13.45A1.39,1.39,0,0,0,120.11,225.41Z"
            style="fill: rgb(38, 50, 56); transform-origin: 122.154px 217.245px;" id="el2r0b6tbgpp8"
            class="animable"></path>
        <path
            d="M157.41,170.41c-1.69,4.64-4,13.2-1.25,16.64a61.89,61.89,0,0,1-15.9,9.65c-3.35-7.82,1.34-10.94,1.34-10.94,5.43-.79,5.93-4.71,5.61-8.46Z"
            style="fill: rgb(255, 139, 123); transform-origin: 148.232px 183.555px;"
            id="ely0fp7slj9xh" class="animable"></path>
        <path
            d="M135.43,165.09c-.84,13.89-9.19,17.87-7.23,25,2.77,10,14.07,2.17,14.07,2.17s-6.15,2-6.54-2.86c-.32-4,13.88-3.38,9.94-12.79C143.14,170.55,135.43,165.09,135.43,165.09Z"
            style="fill: rgb(38, 50, 56); transform-origin: 137.132px 180.133px;" id="els5irixjhnuf"
            class="animable"></path>
        <g id="elmk6nihixsn">
            <path
                d="M154.5,173.92l-7.28,3.38a14.57,14.57,0,0,1,0,2.64c1.52.14,5.46-1,6.95-3.46A3.71,3.71,0,0,0,154.5,173.92Z"
                style="opacity: 0.2; transform-origin: 150.908px 176.936px;" class="animable"></path>
        </g>
        <path
            d="M158.67,157.35c.73,7.88,1.21,11.21-2.12,15.83-5,6.95-14.85,6.13-17.92-1.39-2.77-6.76-3.5-18.52,3.67-22.81A10.8,10.8,0,0,1,158.67,157.35Z"
            style="fill: rgb(255, 139, 123); transform-origin: 147.926px 162.677px;"
            id="elf7baml35edi" class="animable"></path>
        <path d="M156.93,149.44c-6.22-4.27-11.39,3.93-.35,11.9S164,154.29,156.93,149.44Z"
            style="fill: rgb(38, 50, 56); transform-origin: 156.862px 155.949px;" id="el4x2bt1mn1nm"
            class="animable"></path>
        <path
            d="M153.62,147.15c2.57,2.31-12.73,10.83-21.05,8s-1.64-9.18,1.39-10c-2.6,2.51,1.95,6.32,4.15,3.94S148.46,142.52,153.62,147.15Z"
            style="fill: rgb(38, 50, 56); transform-origin: 141.227px 150.393px;" id="elmr1clhzywhd"
            class="animable"></path>
        <path
            d="M123.87,234.94s-16.93,71.69-15.44,89.79C110.16,345.89,133.3,380,133.3,380l10.63-9.65s-10.55-27.94-18.36-46.14c2.5-18.2,24.6-69.62,24.6-86.94Z"
            style="fill: rgb(64, 123, 255); transform-origin: 129.254px 307.47px;"
            id="ely61eo6vjail" class="animable"></path>
        <g id="elusm6lq2cs8">
            <path
                d="M123.87,234.94s-16.93,71.69-15.44,89.79C110.16,345.89,133.3,380,133.3,380l10.63-9.65s-10.55-27.94-18.36-46.14c2.5-18.2,24.6-69.62,24.6-86.94Z"
                style="opacity: 0.6; transform-origin: 129.254px 307.47px;" class="animable"></path>
        </g>
        <polygon points="145.89 371.79 133.33 381.15 130.11 378.7 143.89 367.83 145.89 371.79"
            style="fill: rgb(64, 123, 255); transform-origin: 138px 374.49px;" id="eldjuw67r08y"
            class="animable"></polygon>
        <g id="elmtsuvbtcik">
            <path
                d="M136.4,266.47c-9.33,12.92-9.78,36.68-9.2,50,3.2-12.26,9.91-30.57,15.26-47.07C142.33,263.08,140.76,260.42,136.4,266.47Z"
                style="opacity: 0.2; transform-origin: 134.746px 289.768px;" class="animable"></path>
        </g>
        <path
            d="M129.89,235s6.2,61.91,8.27,82.81c2.46,24.81,6.07,64.6,6.07,64.6l11.94-.5s2.62-33.73.68-56c.35-29.5,4.7-69.61-.9-88.17Z"
            style="fill: rgb(64, 123, 255); transform-origin: 144.34px 308.705px;" id="elzk5h30iemc"
            class="animable"></path>
        <g id="el6k02npd6zfb">
            <path
                d="M129.89,235s6.2,61.91,8.27,82.81c2.46,24.81,6.07,64.6,6.07,64.6l11.94-.5s2.62-33.73.68-56c.35-29.5,4.7-69.61-.9-88.17Z"
                style="opacity: 0.6; transform-origin: 144.34px 308.705px;" class="animable"></path>
        </g>
        <polygon points="157.08 384.1 143.38 383.71 142.42 379.4 157.92 378.97 157.08 384.1"
            style="fill: rgb(64, 123, 255); transform-origin: 150.17px 381.535px;" id="elv3f8i64hyy"
            class="animable"></polygon>
        <path
            d="M146.41,161.7c.1.63-.16,1.2-.58,1.27s-.83-.4-.93-1,.16-1.2.58-1.27S146.31,161.06,146.41,161.7Z"
            style="fill: rgb(38, 50, 56); transform-origin: 145.655px 161.835px;" id="elcelw5jj9dpf"
            class="animable"></path>
        <path
            d="M139.22,162.81c.1.64-.16,1.21-.58,1.27s-.83-.4-.93-1,.16-1.21.58-1.27S139.12,162.18,139.22,162.81Z"
            style="fill: rgb(38, 50, 56); transform-origin: 138.465px 162.945px;" id="elmhfllc04u4c"
            class="animable"></path>
        <path d="M138.47,161.78l-1.59-.2S137.85,162.65,138.47,161.78Z"
            style="fill: rgb(38, 50, 56); transform-origin: 137.675px 161.85px;" id="eltavxz6d4tdm"
            class="animable"></path>
        <path d="M141.58,163.44a17.42,17.42,0,0,1-1.64,4.41,2.77,2.77,0,0,0,2.33.07Z"
            style="fill: rgb(255, 86, 82); transform-origin: 141.105px 165.792px;"
            id="el3ecdwh9rgd6" class="animable"></path>
        <path
            d="M146.41,169.67a5.38,5.38,0,0,1-1,.25.19.19,0,0,1-.22-.15.19.19,0,0,1,.16-.22,5.06,5.06,0,0,0,3.8-2.61.2.2,0,0,1,.25-.09.19.19,0,0,1,.1.25A5.33,5.33,0,0,1,146.41,169.67Z"
            style="fill: rgb(38, 50, 56); transform-origin: 147.351px 168.379px;" id="el22c07l47ydt"
            class="animable"></path>
        <path
            d="M160.86,162.73a5.83,5.83,0,0,1-2,4c-1.54,1.32-3.17.16-3.46-1.75-.27-1.71.22-4.46,2.11-5A2.6,2.6,0,0,1,160.86,162.73Z"
            style="fill: rgb(255, 139, 123); transform-origin: 158.102px 163.58px;"
            id="elaiiqd6cge9h" class="animable"></path>
        <path
            d="M149.68,157.76a.38.38,0,0,1-.29-.06,3,3,0,0,0-2.7-.45.37.37,0,0,1-.49-.21.38.38,0,0,1,.21-.49,3.72,3.72,0,0,1,3.41.53.38.38,0,0,1,.1.52A.43.43,0,0,1,149.68,157.76Z"
            style="fill: rgb(38, 50, 56); transform-origin: 148.078px 157.059px;" id="elr3dxgd076"
            class="animable"></path>
        <path
            d="M136.1,160.05a.34.34,0,0,1-.28,0,.37.37,0,0,1-.18-.5,3.73,3.73,0,0,1,2.67-2.18.38.38,0,0,1,.11.75,3,3,0,0,0-2.1,1.75A.36.36,0,0,1,136.1,160.05Z"
            style="fill: rgb(38, 50, 56); transform-origin: 137.16px 158.725px;" id="el8cgtc89nwgc"
            class="animable"></path>
        <path
            d="M171.65,199.66c.15,1.45.23,2.72.27,4.07s.07,2.65.06,4q-.06,4-.51,8a56.37,56.37,0,0,1-1.5,8,36.94,36.94,0,0,1-1.3,4c-.25.66-.53,1.32-.82,2,0,0-.15.32-.25.5a3.92,3.92,0,0,1-.37.59,5.71,5.71,0,0,1-.86,1,7.06,7.06,0,0,1-1.75,1.1,9.93,9.93,0,0,1-2.84.72,17.46,17.46,0,0,1-2.35.1,35.05,35.05,0,0,1-4.22-.37,70.81,70.81,0,0,1-7.77-1.68c-2.51-.69-5-1.45-7.43-2.26s-4.85-1.71-7.26-2.72l1.25-3.84c2.43.53,4.9,1.09,7.36,1.56s4.91,1,7.35,1.36,4.88.73,7.24.88a27.77,27.77,0,0,0,3.39.06,11.5,11.5,0,0,0,1.44-.16,2.94,2.94,0,0,0,.83-.26s0,0-.15.08a1.16,1.16,0,0,0-.24.25l-.12.18s-.09.2,0,.07c.19-.52.38-1,.54-1.58.34-1.08.62-2.19.87-3.32a61.11,61.11,0,0,0,1-7c.22-2.38.29-4.8.29-7.22,0-1.21,0-2.42,0-3.63s-.11-2.46-.18-3.54Z"
            style="fill: rgb(255, 139, 123); transform-origin: 152.366px 216.703px;"
            id="elk5v9ihmm0b" class="animable"></path>
        <path
            d="M169.46,190.06c3.45,2.25,2.28,21.86,2.28,21.86l-8.12,1.63s-.07-10-.94-16.49C162.09,192.65,167,188.45,169.46,190.06Z"
            style="fill: rgb(255, 139, 123); transform-origin: 167.281px 201.629px;"
            id="elvub5nsxpyy" class="animable"></path>
        <path
            d="M141.66,408.06a1.05,1.05,0,0,1-.17-.92.7.7,0,0,1,.41-.53c1-.43,3.28,1.12,3.54,1.29a.18.18,0,0,1,.07.19.22.22,0,0,1-.15.16c-1.05.25-2.92.57-3.62-.11Zm3.18-.08c-1-.59-2.3-1.26-2.81-1a.3.3,0,0,0-.17.24.68.68,0,0,0,.15.67C142.39,408.23,143.43,408.27,144.84,408Z"
            style="fill: rgb(64, 123, 255); transform-origin: 143.482px 407.541px;"
            id="elov18gxjh3n" class="animable"></path>
        <path
            d="M144.28,407.35a3.05,3.05,0,0,1-.89-2.16.74.74,0,0,1,.68-.53.93.93,0,0,1,.78.24c.81.76.67,3.06.66,3.16a.21.21,0,0,1-.1.17.21.21,0,0,1-.19,0A4.11,4.11,0,0,1,144.28,407.35Zm.38-2.08a.6.6,0,0,0-.08-.08.59.59,0,0,0-.49-.16c-.25,0-.3.14-.33.23-.15.55.67,1.84,1.39,2.44A4.52,4.52,0,0,0,144.66,405.27Z"
            style="fill: rgb(64, 123, 255); transform-origin: 144.458px 406.451px;"
            id="el383jyhsji5" class="animable"></path>
        <path
            d="M156.74,235.92l.35,3c.08.23-.22.44-.59.4l-33-2.92c-.29,0-.51-.19-.5-.37l.19-2.92c0-.2.29-.35.6-.32l32.49,2.88A.53.53,0,0,1,156.74,235.92Z"
            style="fill: rgb(255, 255, 255); transform-origin: 140.051px 236.056px;"
            id="elfv5uga1ve4o" class="animable"></path>
        <path
            d="M151.78,239.2l.87.07c.18,0,.32-.06.33-.17l.2-3.79c0-.11-.13-.22-.3-.23L152,235c-.17,0-.32.06-.33.17l-.2,3.8C151.47,239.08,151.61,239.18,151.78,239.2Z"
            style="fill: rgb(64, 123, 255); transform-origin: 152.325px 237.135px;"
            id="ellx0sc0w8sj" class="animable"></path>
        <g id="elfakqaqrk04p">
            <path
                d="M151.78,239.2l.87.07c.18,0,.32-.06.33-.17l.2-3.79c0-.11-.13-.22-.3-.23L152,235c-.17,0-.32.06-.33.17l-.2,3.8C151.47,239.08,151.61,239.18,151.78,239.2Z"
                style="opacity: 0.6; transform-origin: 152.325px 237.135px;" class="animable"></path>
        </g>
        <path
            d="M125.87,236.9l.87.08c.18,0,.32-.06.33-.17l.2-3.8c0-.11-.13-.21-.3-.23l-.87-.07c-.18,0-.32.06-.33.17l-.2,3.79C125.56,236.78,125.7,236.89,125.87,236.9Z"
            style="fill: rgb(64, 123, 255); transform-origin: 126.42px 234.845px;"
            id="elx05jzcqx4qg" class="animable"></path>
        <g id="el7llp2jl9xbw">
            <path
                d="M125.87,236.9l.87.08c.18,0,.32-.06.33-.17l.2-3.8c0-.11-.13-.21-.3-.23l-.87-.07c-.18,0-.32.06-.33.17l-.2,3.79C125.56,236.78,125.7,236.89,125.87,236.9Z"
                style="opacity: 0.6; transform-origin: 126.42px 234.845px;" class="animable"></path>
        </g>
        <path
            d="M138.83,238.05l.87.08c.17,0,.32-.07.32-.18l.21-3.79c0-.11-.13-.21-.31-.23l-.87-.08c-.17,0-.32.07-.32.18l-.21,3.79C138.52,237.93,138.66,238,138.83,238.05Z"
            style="fill: rgb(64, 123, 255); transform-origin: 139.375px 235.99px;"
            id="el7krqwd6lfk3" class="animable"></path>
        <g id="el7d9060i0rbu">
            <path
                d="M138.83,238.05l.87.08c.17,0,.32-.07.32-.18l.21-3.79c0-.11-.13-.21-.31-.23l-.87-.08c-.17,0-.32.07-.32.18l-.21,3.79C138.52,237.93,138.66,238,138.83,238.05Z"
                style="opacity: 0.6; transform-origin: 139.375px 235.99px;" class="animable"></path>
        </g>
        <path d="M135.25,223.11l-5-6.67-2.08,8s3.72,3.25,6.88,2Z"
            style="fill: rgb(255, 139, 123); transform-origin: 131.71px 221.583px;"
            id="elboehktztqzh" class="animable"></path>
        <polygon points="123.85 214.97 122.46 221.72 129.21 225.17 130.28 216.44 123.85 214.97"
            style="fill: rgb(255, 139, 123); transform-origin: 126.37px 220.07px;" id="ele3x18n7wah"
            class="animable"></polygon>
        <path d="M145.67,160.67l-1.6-.2S145,161.54,145.67,160.67Z"
            style="fill: rgb(38, 50, 56); transform-origin: 144.87px 160.74px;" id="el10nqf94mbi7"
            class="animable"></path>
    </g>
    <defs>
        <filter id="active" height="200%">
            <feMorphology in="SourceAlpha" result="DILATED" operator="dilate" radius="2"></feMorphology>
            <feFlood flood-color="#32DFEC" flood-opacity="1" result="PINK"></feFlood>
            <feComposite in="PINK" in2="DILATED" operator="in" result="OUTLINE"></feComposite>
            <feMerge>
                <feMergeNode in="OUTLINE"></feMergeNode>
                <feMergeNode in="SourceGraphic"></feMergeNode>
            </feMerge>
        </filter>
        <filter id="hover" height="200%">
            <feMorphology in="SourceAlpha" result="DILATED" operator="dilate" radius="2"></feMorphology>
            <feFlood flood-color="#ff0000" flood-opacity="0.5" result="PINK"></feFlood>
            <feComposite in="PINK" in2="DILATED" operator="in" result="OUTLINE"></feComposite>
            <feMerge>
                <feMergeNode in="OUTLINE"></feMergeNode>
                <feMergeNode in="SourceGraphic"></feMergeNode>
            </feMerge>
            <feColorMatrix type="matrix"
                values="0   0   0   0   0                0   1   0   0   0                0   0   0   0   0                0   0   0   1   0 "></feColorMatrix>
        </filter>
    </defs>
</svg>